<svg width="478" height="56" viewBox="0 0 478 56" fill="none" xmlns="http://www.w3.org/2000/svg">
<path d="M20.332 55.331C16.38 55.331 12.58 54.6977 8.932 53.431C5.33467 52.1137 2.548 50.4417 0.572 48.415L2.776 44.083C4.65067 45.907 7.15867 47.4523 10.3 48.719C13.492 49.935 16.836 50.543 20.332 50.543C23.676 50.543 26.3867 50.1377 28.464 49.327C30.592 48.4657 32.1373 47.3257 33.1 45.907C34.1133 44.4883 34.62 42.9177 34.62 41.195C34.62 39.1177 34.012 37.4457 32.796 36.179C31.6307 34.9123 30.0853 33.9243 28.16 33.215C26.2347 32.455 24.1067 31.7963 21.776 31.239C19.4453 30.6817 17.1147 30.099 14.784 29.491C12.4533 28.8323 10.3 27.971 8.324 26.907C6.39867 25.843 4.828 24.4497 3.612 22.727C2.44667 20.9537 1.864 18.6483 1.864 15.811C1.864 13.1763 2.548 10.7697 3.916 8.591C5.33467 6.36166 7.488 4.58833 10.376 3.271C13.264 1.903 16.9627 1.219 21.472 1.219C24.4613 1.219 27.4253 1.64966 30.364 2.511C33.3027 3.32166 35.836 4.46166 37.964 5.931L36.064 10.415C33.784 8.895 31.352 7.78033 28.768 7.071C26.2347 6.36167 23.7773 6.007 21.396 6.007C18.204 6.007 15.5693 6.43767 13.492 7.299C11.4147 8.16033 9.86933 9.32566 8.856 10.795C7.89333 12.2137 7.412 13.835 7.412 15.659C7.412 17.7363 7.99467 19.4083 9.16 20.675C10.376 21.9417 11.9467 22.9297 13.872 23.639C15.848 24.3483 18.0013 24.9817 20.332 25.539C22.6627 26.0963 24.968 26.7043 27.248 27.363C29.5787 28.0217 31.7067 28.883 33.632 29.947C35.608 30.9603 37.1787 32.3283 38.344 34.051C39.56 35.7737 40.168 38.0283 40.168 40.815C40.168 43.399 39.4587 45.8057 38.04 48.035C36.6213 50.2137 34.4427 51.987 31.504 53.355C28.616 54.6723 24.892 55.331 20.332 55.331ZM91.3338 1.675H96.8818V54.875H91.3338V1.675ZM58.0458 54.875H52.4218V1.675H58.0458V54.875ZM91.8658 30.327H57.4378V25.387H91.8658V30.327ZM137.502 55.331C133.499 55.331 129.775 54.6723 126.33 53.355C122.935 51.987 119.971 50.087 117.438 47.655C114.955 45.1723 113.005 42.3097 111.586 39.067C110.218 35.7737 109.534 32.1763 109.534 28.275C109.534 24.3737 110.218 20.8017 111.586 17.559C113.005 14.2657 114.955 11.403 117.438 8.971C119.971 6.48833 122.935 4.58833 126.33 3.271C129.725 1.903 133.449 1.219 137.502 1.219C141.505 1.219 145.203 1.903 148.598 3.271C151.993 4.58833 154.931 6.463 157.414 8.895C159.947 11.327 161.898 14.1897 163.266 17.483C164.685 20.7763 165.394 24.3737 165.394 28.275C165.394 32.1763 164.685 35.7737 163.266 39.067C161.898 42.3603 159.947 45.223 157.414 47.655C154.931 50.087 151.993 51.987 148.598 53.355C145.203 54.6723 141.505 55.331 137.502 55.331ZM137.502 50.315C140.694 50.315 143.633 49.783 146.318 48.719C149.054 47.6043 151.41 46.059 153.386 44.083C155.413 42.0563 156.983 39.7257 158.098 37.091C159.213 34.4057 159.77 31.467 159.77 28.275C159.77 25.083 159.213 22.1697 158.098 19.535C156.983 16.8497 155.413 14.519 153.386 12.543C151.41 10.5163 149.054 8.971 146.318 7.907C143.633 6.79233 140.694 6.235 137.502 6.235C134.31 6.235 131.346 6.79233 128.61 7.907C125.874 8.971 123.493 10.5163 121.466 12.543C119.49 14.519 117.919 16.8497 116.754 19.535C115.639 22.1697 115.082 25.083 115.082 28.275C115.082 31.4163 115.639 34.3297 116.754 37.015C117.919 39.7003 119.49 42.0563 121.466 44.083C123.493 46.059 125.874 47.6043 128.61 48.719C131.346 49.783 134.31 50.315 137.502 50.315ZM178 54.875V1.675H197.912C202.421 1.675 206.297 2.40966 209.54 3.879C212.783 5.29767 215.265 7.375 216.988 10.111C218.761 12.7963 219.648 16.0643 219.648 19.915C219.648 23.6643 218.761 26.907 216.988 29.643C215.265 32.3283 212.783 34.4057 209.54 35.875C206.297 37.3443 202.421 38.079 197.912 38.079H181.116L183.624 35.419V54.875H178ZM183.624 35.875L181.116 33.139H197.76C203.08 33.139 207.108 31.999 209.844 29.719C212.631 27.3883 214.024 24.1203 214.024 19.915C214.024 15.659 212.631 12.3657 209.844 10.035C207.108 7.70433 203.08 6.539 197.76 6.539H181.116L183.624 3.879V35.875ZM255.883 55.787C251.677 55.787 247.801 55.1283 244.255 53.811C240.759 52.443 237.693 50.5177 235.059 48.035C232.475 45.5523 230.448 42.639 228.979 39.295C227.56 35.951 226.851 32.2777 226.851 28.275C226.851 24.2723 227.56 20.599 228.979 17.255C230.448 13.911 232.5 10.9977 235.135 8.515C237.769 6.03233 240.86 4.13233 244.407 2.815C247.953 1.447 251.855 0.762999 256.111 0.762999C260.823 0.762999 265.053 1.54833 268.803 3.119C272.603 4.68966 275.795 6.96966 278.379 9.959L270.475 17.255C268.549 15.2283 266.447 13.7337 264.167 12.771C261.887 11.7577 259.404 11.251 256.719 11.251C254.135 11.251 251.779 11.6563 249.651 12.467C247.523 13.2777 245.673 14.443 244.103 15.963C242.583 17.483 241.392 19.2817 240.531 21.359C239.72 23.4363 239.315 25.7417 239.315 28.275C239.315 30.7577 239.72 33.0377 240.531 35.115C241.392 37.1923 242.583 39.0163 244.103 40.587C245.673 42.107 247.497 43.2723 249.575 44.083C251.703 44.8937 254.033 45.299 256.567 45.299C258.999 45.299 261.355 44.919 263.635 44.159C265.965 43.3483 268.22 42.0057 270.399 40.131L277.391 49.023C274.503 51.2017 271.133 52.8737 267.283 54.039C263.483 55.2043 259.683 55.787 255.883 55.787ZM266.143 47.427V27.439H277.391V49.023L266.143 47.427ZM312.464 55.787C304.914 55.787 299.012 53.6843 294.756 49.479C290.5 45.2737 288.372 39.2697 288.372 31.467V1.675H300.684V31.011C300.684 36.0777 301.722 39.7257 303.8 41.955C305.877 44.1843 308.79 45.299 312.54 45.299C316.289 45.299 319.202 44.1843 321.28 41.955C323.357 39.7257 324.396 36.0777 324.396 31.011V1.675H336.556V31.467C336.556 39.2697 334.428 45.2737 330.172 49.479C325.916 53.6843 320.013 55.787 312.464 55.787ZM348.722 54.875V1.675H361.034V54.875H348.722ZM373.66 54.875V1.675H397.828C403.604 1.675 408.696 2.78966 413.104 5.019C417.512 7.19766 420.957 10.263 423.44 14.215C425.922 18.167 427.164 22.8537 427.164 28.275C427.164 33.6457 425.922 38.3323 423.44 42.335C420.957 46.287 417.512 49.3777 413.104 51.607C408.696 53.7857 403.604 54.875 397.828 54.875H373.66ZM385.972 44.767H397.22C400.766 44.767 403.832 44.1083 406.416 42.791C409.05 41.423 411.077 39.4977 412.496 37.015C413.965 34.5323 414.7 31.619 414.7 28.275C414.7 24.8803 413.965 21.967 412.496 19.535C411.077 17.0523 409.05 15.1523 406.416 13.835C403.832 12.467 400.766 11.783 397.22 11.783H385.972V44.767ZM447.773 23.107H473.385V32.683H447.773V23.107ZM448.685 44.995H477.641V54.875H436.449V1.675H476.653V11.555H448.685V44.995Z" fill="white"/>
</svg>
